<svg width="100" height="100" xmlns="http://www.w3.org/2000/svg">
 <defs>
  <style>.cls-1 {
        fill: #888;
      }

      .cls-1, .cls-2 {
        fill-rule: evenodd;
      }

      .cls-2 {
        fill: #333;
      }</style>
 </defs>
 <g>
  <title>background</title>
  <rect fill="none" id="canvas_background" height="402" width="582" y="-1" x="-1"/>
 </g>
 <g>
  <title>Layer 1</title>
  <path d="m12.533,40.984001a0.981,0.981 0 0 1 -0.688,-0.278l-6.36,-6.206001l6.361,-6.208a0.992,0.992 0 0 1 1.371,0a0.921,0.921 0 0 1 0,1.330999l-5,4.882002l5,4.882a0.921,0.921 0 0 1 0,1.330997a0.982,0.982 0 0 1 -0.684,0.266003zm70.934003,0.030998a0.98,0.98 0 0 0 0.687996,-0.278999l6.361,-6.223l-6.361,-6.223a0.99,0.99 0 0 0 -1.371002,0a0.925,0.925 0 0 0 0,1.334l5,4.894001l-5,4.892998a0.925,0.925 0 0 0 0,1.334a0.981,0.981 0 0 0 0.683006,0.27z" class="cls-1" id="_"/>
  <path d="m12.283,16.983999a0.981,0.981 0 0 1 -0.688,-0.278l-6.36,-6.205999l6.36,-6.21a0.992,0.992 0 0 1 1.370999,0a0.921,0.921 0 0 1 0,1.331l-5,4.882l5,4.882a0.921,0.921 0 0 1 0,1.330999a0.982,0.982 0 0 1 -0.683,0.268zm69.934003,0.031a0.98,0.98 0 0 0 0.687996,-0.278999l6.361,-6.222l-6.361,-6.223a0.99,0.99 0 0 0 -1.371002,0a0.925,0.925 0 0 0 0,1.334l5,4.894l-5,4.893a0.925,0.925 0 0 0 0,1.334001a0.981,0.981 0 0 0 0.683006,0.268999z" class="cls-2" id="_2"/>
  <path d="m18.033001,16.983999a0.981,0.981 0 0 1 -0.688,-0.278l-6.360001,-6.205999l6.360001,-6.21a0.992,0.992 0 0 1 1.370998,0a0.921,0.921 0 0 1 0,1.331l-5,4.882l5,4.882a0.921,0.921 0 0 1 0,1.330999a0.982,0.982 0 0 1 -0.682999,0.268zm69.934002,0.031a0.98,0.98 0 0 0 0.687996,-0.278999l6.361,-6.222l-6.361,-6.223a0.99,0.99 0 0 0 -1.371002,0a0.925,0.925 0 0 0 0,1.334l5,4.894l-5,4.893a0.925,0.925 0 0 0 0,1.334001a0.981,0.981 0 0 0 0.683006,0.268999z" class="cls-2" id="svg_1"/>
  <path d="m18.533001,40.984001a0.981,0.981 0 0 1 -0.688,-0.278l-6.360001,-6.206001l6.361,-6.208a0.992,0.992 0 0 1 1.370998,0a0.921,0.921 0 0 1 0,1.330999l-4.999999,4.882002l4.999999,4.882a0.921,0.921 0 0 1 0,1.330997a0.982,0.982 0 0 1 -0.683998,0.266003zm70.934002,0.030998a0.98,0.98 0 0 0 0.687996,-0.278999l6.361,-6.223l-6.361,-6.223a0.99,0.99 0 0 0 -1.371002,0a0.925,0.925 0 0 0 0,1.334l5,4.894001l-5,4.892998a0.925,0.925 0 0 0 0,1.334a0.981,0.981 0 0 0 0.683006,0.27z" class="cls-1" id="svg_2"/>
 </g>
</svg>